<?xml version="1.0" encoding="utf-8"?>
<!-- Generator: Adobe Illustrator 22.0.0, SVG Export Plug-In . SVG Version: 6.00 Build 0)  -->
<svg version="1.0" xmlns="http://www.w3.org/2000/svg" xmlns:xlink="http://www.w3.org/1999/xlink" x="0px" y="0px"
	 viewBox="0 0 750 500" style="enable-background:new 0 0 750 500;" xml:space="preserve">
<style type="text/css">
	.st0{fill:#CEDCFE;}
	.st1{clip-path:url(#SVGID_4_);}
	.st2{fill:url(#SVGID_5_);}
	.st3{fill:url(#SVGID_6_);}
	.st4{opacity:0.4;clip-path:url(#SVGID_4_);}
	.st5{fill:none;stroke:#0ABAB5;stroke-linecap:round;stroke-linejoin:round;stroke-miterlimit:10;}
	.st6{fill:#0ABAB5;}
	.st7{opacity:0.2;clip-path:url(#SVGID_4_);}
	.st8{clip-path:url(#SVGID_4_);fill:#0ABAB5;}
	.st9{clip-path:url(#SVGID_4_);fill:#42E8D9;}
	.st10{fill:#42E8D9;}
	.st11{fill:#FF9E9B;}
	.st12{opacity:0.5;fill:#FF9E9B;}
	.st13{clip-path:url(#SVGID_4_);fill:#FF9E9B;}
	.st14{clip-path:url(#SVGID_4_);fill:#FFFFFF;}
	.st15{opacity:0.5;clip-path:url(#SVGID_4_);fill:none;stroke:#FF9E9B;stroke-width:0.9114;stroke-miterlimit:10;}
	
		.st16{clip-path:url(#SVGID_4_);fill:none;stroke:#FFFFFF;stroke-width:1.7126;stroke-linecap:round;stroke-linejoin:round;stroke-miterlimit:10;}
	
		.st17{clip-path:url(#SVGID_4_);fill:none;stroke:#FFFFFF;stroke-width:0.2441;stroke-linecap:round;stroke-linejoin:round;stroke-miterlimit:10;}
	.st18{fill:none;stroke:#42E8D9;stroke-miterlimit:10;}
	.st19{opacity:0.4;clip-path:url(#SVGID_4_);fill:#0ABAB5;}
</style>
<g id="BACKGROUND">
	<rect class="st0" width="750" height="500"/>
</g>
<g id="OBJECTS">
	<g>
		<g>
			
				<image style="overflow:visible;opacity:0.7;" width="943" height="592" xlink:href="A8D6D4A6.png"  transform="matrix(1 0 0 1 -102.9314 -37.9914)">
			</image>
			<g>
				<g>
					<defs>
						<polyline id="SVGID_1_" points="-59,0 766.3,0 766.3,502.9 -59,502.9 						"/>
					</defs>
					<clipPath id="SVGID_2_">
						<use xlink:href="#SVGID_1_"  style="overflow:visible;"/>
					</clipPath>
				</g>
				<g>
					<defs>
						<polyline id="SVGID_3_" points="-59,0 766.3,0 766.3,502.9 -59,502.9 						"/>
					</defs>
					<use xlink:href="#SVGID_3_"  style="overflow:visible;fill:#FFFFFF;"/>
					<clipPath id="SVGID_4_">
						<use xlink:href="#SVGID_3_"  style="overflow:visible;"/>
					</clipPath>
					<g class="st1">
						<linearGradient id="SVGID_5_" gradientUnits="userSpaceOnUse" x1="198.9497" y1="434.6792" x2="206.6081" y2="442.3377">
							<stop  offset="0" style="stop-color:#E9EBF9"/>
							<stop  offset="1" style="stop-color:#FFFFFF"/>
						</linearGradient>
						<path class="st2" d="M210.4,438.5h-15.3C195.1,438.5,201.1,439.1,210.4,438.5z"/>
						<linearGradient id="SVGID_6_" gradientUnits="userSpaceOnUse" x1="426.618" y1="183.0388" x2="733.4825" y2="489.9033">
							<stop  offset="0" style="stop-color:#7AEDED"/>
							<stop  offset="1" style="stop-color:#FFFFFF"/>
						</linearGradient>
						<path class="st3" d="M769.6,27.6c-19.4,30.1-26.4,59.2-66.3,68.4c-29,6.7-59.2,1.2-88.9,0.6c-29.7-0.7-62.5,5-81.5,27.7
							c-22.9,27.3-18.5,70.2-41.4,97.5c-40.1,47.9-132.6,16.9-169.8,67.1c-21.4,28.9-5.7,72.6-22.9,104.1
							c-26,47.6-74.4,59.2-99.8,60.7h570.7V27.6z"/>
					</g>
					<g class="st4">
						<path class="st5" d="M710.5,183.1c2.8,0.4,5.4,1.1,8,2.2c2.5,1.1,4.7,2.6,6.5,4.3c1.8,1.8,3.2,3.9,4.2,6.2
							c0.9,2.4,1.2,5,0.8,7.9c-0.3,2.4-1,4.4-1.9,6c-1,1.6-2.1,3.1-3.5,4.3c-1.3,1.2-2.8,2.3-4.3,3.3c-1.5,1-3,1.9-4.3,2.7
							c-1.4,0.9-2.6,1.8-3.6,2.8c-1.1,1-1.8,2.1-2.1,3.4c-0.2,0.6-0.5,1.2-1,1.6c-0.5,0.4-1,0.6-1.7,0.5l-6.7-0.9
							c-0.7-0.1-1.2-0.4-1.6-0.9c-0.4-0.5-0.6-1.1-0.4-1.8c0.4-2.3,1.2-4.2,2.3-5.9c1.1-1.6,2.3-3,3.7-4.3c1.4-1.2,2.9-2.3,4.4-3.2
							c1.5-0.9,3-1.8,4.3-2.7c1.3-0.9,2.4-1.8,3.3-2.7c0.9-0.9,1.4-2,1.6-3.2c0.3-2.2-0.4-4.2-2.1-5.9c-1.7-1.7-4.1-2.8-7.2-3.2
							c-5-0.7-9.1,1.3-12.1,6c-0.4,0.6-0.8,1.1-1.1,1.3c-0.4,0.3-0.9,0.4-1.7,0.3l-7.2-1c-0.5-0.1-1-0.3-1.3-0.7
							c-0.3-0.4-0.5-0.9-0.4-1.5c0.3-2.1,1.3-4.1,2.8-6.1c1.5-2,3.4-3.7,5.7-5.2c2.3-1.5,4.9-2.6,7.8-3.3
							C704.3,182.9,707.4,182.7,710.5,183.1z M707.2,233.8c0.6,0.1,1.2,0.4,1.6,0.9c0.4,0.5,0.6,1.1,0.5,1.8l-1.1,7.8
							c-0.1,0.6-0.4,1.2-0.9,1.6c-0.5,0.4-1.1,0.6-1.8,0.5l-7.6-1c-0.7-0.1-1.2-0.4-1.6-0.9c-0.4-0.5-0.6-1.1-0.5-1.8l1.1-7.8
							c0.1-0.6,0.4-1.2,0.9-1.6c0.5-0.4,1.1-0.6,1.8-0.5L707.2,233.8z"/>
					</g>
					<g class="st1">
						<path class="st6" d="M741.5,338.1c0-1.2-0.8-2.2-1.9-2.5l-12.3-2.8c-0.2-2.4-0.6-4.8-1.2-7.2l10.6-6.6c1-0.6,1.4-1.9,1-3
							c-2.7-7.1-6.8-13.6-12-19.1c-0.8-0.9-2.1-1-3.2-0.4l-10.6,6.7c-1.9-1.6-3.9-3-6-4.2l2.8-12.2c0.3-1.2-0.3-2.4-1.4-2.8
							c-7-3.1-14.4-4.8-22.1-5c-1.2,0-2.2,0.8-2.5,1.9l-2.8,12.2c-2.4,0.2-4.9,0.6-7.2,1.2l-6.7-10.6c-0.6-1-1.9-1.4-3-1
							c-7.2,2.7-13.6,6.7-19.2,12c-0.9,0.8-1,2.1-0.4,3.1l6.7,10.6c-1.6,1.8-3,3.8-4.2,5.9l-12.3-2.8c-1.2-0.3-2.4,0.3-2.8,1.4
							c-1.6,3.5-2.8,7.1-3.6,10.7s-1.3,7.4-1.4,11.2c0,1.2,0.8,2.2,1.9,2.5l12.3,2.8c0.2,2.4,0.6,4.8,1.2,7.2l-10.6,6.6
							c-1,0.6-1.4,1.9-1,3c2.7,7.1,6.8,13.6,12,19.1c0.8,0.9,2.1,1,3.2,0.4l10.6-6.6c1.9,1.6,3.9,3,6,4.2l-2.8,12.2
							c-0.3,1.2,0.3,2.4,1.4,2.8c3.5,1.6,7.1,2.8,10.8,3.6c3.7,0.8,7.5,1.3,11.3,1.4c1.2,0,2.2-0.8,2.5-1.9l2.8-12.2
							c2.4-0.2,4.9-0.6,7.2-1.2l6.7,10.6c0.6,1,1.9,1.4,3,1c7.2-2.7,13.6-6.8,19.2-12c0.9-0.8,1-2.1,0.4-3.1l-6.7-10.6
							c1.6-1.9,3-3.8,4.2-5.9l12.3,2.8c1.2,0.3,2.4-0.3,2.8-1.4c1.6-3.5,2.8-7.1,3.6-10.7S741.3,341.9,741.5,338.1z M700.1,343.1
							c-2.8,6.9-10.2,11.6-17.7,11c0,0,0,0,0,0c-5.8-0.4-10.9-3.4-13.9-8.3c-3-4.8-3.6-10.7-1.4-16.1c2.8-6.9,10.2-11.6,17.7-11
							c1,0.1,1.9,0.2,2.8,0.4c4.6,1.1,8.6,3.8,11.1,7.9C701.7,331.9,702.2,337.7,700.1,343.1z"/>
					</g>
					<g class="st7">
						<path class="st6" d="M789.7,418.5c0.4-0.6,0.3-1.5-0.2-2l-5.8-5.6c0.7-1.4,1.3-2.9,1.7-4.3l8.1-0.1c0.8,0,1.4-0.6,1.6-1.3
							c0.9-4.8,0.8-9.7-0.2-14.5c-0.2-0.8-0.8-1.3-1.6-1.3l-8.1,0.1c-0.5-1.5-1.1-2.9-1.9-4.3l5.6-5.8c0.5-0.5,0.6-1.4,0.2-2
							c-2.8-4-6.3-7.4-10.4-10.1c-0.6-0.4-1.5-0.3-2,0.2l-5.6,5.8c-1.4-0.7-2.9-1.3-4.4-1.7l-0.1-8c0-0.8-0.6-1.4-1.3-1.6
							c-4.8-0.9-9.7-0.8-14.6,0.2c-0.8,0.2-1.3,0.8-1.3,1.6l0.1,8c-1.5,0.5-2.9,1.1-4.3,1.9l-5.8-5.6c-0.6-0.5-1.4-0.6-2-0.2
							c-2,1.4-3.9,3-5.6,4.7c-1.7,1.7-3.2,3.6-4.6,5.7c-0.4,0.6-0.3,1.5,0.2,2l5.8,5.6c-0.7,1.4-1.3,2.9-1.7,4.3l-8.1,0.1
							c-0.8,0-1.4,0.6-1.6,1.3c-0.9,4.8-0.8,9.7,0.2,14.5c0.2,0.8,0.8,1.3,1.6,1.3l8.1-0.1c0.5,1.5,1.1,2.9,1.9,4.3l-5.6,5.8
							c-0.5,0.5-0.6,1.4-0.2,2c1.4,2,3,3.9,4.7,5.6c1.7,1.7,3.7,3.2,5.7,4.5c0.6,0.4,1.5,0.3,2-0.2l5.6-5.8c1.4,0.7,2.9,1.3,4.4,1.7
							l0.1,8c0,0.8,0.6,1.4,1.3,1.6c4.8,0.9,9.7,0.8,14.6-0.2c0.8-0.2,1.3-0.8,1.3-1.6l-0.1-8c1.5-0.5,2.9-1.1,4.3-1.9l5.8,5.6
							c0.6,0.5,1.4,0.6,2,0.2c2-1.4,3.9-3,5.6-4.7C786.8,422.5,788.4,420.6,789.7,418.5z M765.3,407.5c-3.8,2.9-9.5,3-13.4,0.2
							c0,0,0,0,0,0c-3-2.1-4.8-5.5-4.9-9.2c0-3.7,1.6-7.1,4.6-9.3c3.8-2.9,9.5-3,13.4-0.2c0.5,0.4,1,0.7,1.4,1.2
							c2.2,2.1,3.4,4.9,3.5,8C769.9,401.9,768.3,405.3,765.3,407.5z"/>
					</g>
					<ellipse class="st8" cx="628.2" cy="231.1" rx="22.9" ry="22.8"/>
					<path class="st9" d="M464.4,436.3c3.2,5.7,9.2,9.2,15.7,9.2h223c6.5,0,12.5-3.5,15.7-9.2c3.2-5.7,3-12.6-0.4-18.1l-61-98.6
						c-4.6-7.5-13.8-10.4-21.8-7.3c-27.9-12.9-60.2-12.9-88.1,0c-7.9-3.1-17.1-0.2-21.8,7.3l-61,98.6
						C461.4,423.7,461.2,430.6,464.4,436.3z M670.9,409.7h-22.4v-36.2L670.9,409.7z M512.3,409.7l22.4-36.2v36.2H512.3z"/>
					<g class="st1">
						<path class="st10" d="M587,330.3h9.2c6.3,0,11.4-5.1,11.4-11.4v-58.2h-31.9v58.2C575.6,325.2,580.7,330.3,587,330.3z"/>
						<path class="st11" d="M587,323.6h9.2c6.3,0,11.4-5.1,11.4-11.4V254h-31.9v58.2C575.6,318.5,580.7,323.6,587,323.6z"/>
						<path class="st12" d="M607.5,293c0,8.8-7.1,15.9-16,15.9c-8.8,0-16-7.1-16-15.9v-34.8h31.9V293z"/>
					</g>
					<path class="st9" d="M605,445.5h56.9v-0.3c0-15.6-12.7-28.3-28.4-28.3l0,0c-15.7,0-28.4,12.7-28.4,28.3V445.5z"/>
					<path class="st13" d="M594,295.1L594,295.1c18.7-1.5,32.6-17.8,31.1-36.4l-4.3-53l-67.6,5.4l4.3,53
						C559,282.8,575.3,296.6,594,295.1z"/>
					<ellipse class="st8" cx="595.9" cy="248" rx="2.2" ry="2.5"/>
					<ellipse class="st8" cx="568.6" cy="248" rx="2.2" ry="2.5"/>
					<path class="st14" d="M601.5,267c0.3,4.1-1.6,8-5.1,9.8c-3.6,1.8-7.8,1.1-11-1.5L601.5,267z"/>
					<path class="st13" d="M598.6,445.5h51.9v-0.3c0-14.3-11.6-25.8-25.9-25.8l0,0c-14.3,0-25.9,11.6-25.9,25.8V445.5z"/>
					<path class="st8" d="M591.5,445.5H626v-5.1c0-6.8-5.5-12.3-12.3-12.3h-9.9c-6.8,0-12.3,5.5-12.3,12.3V445.5z"/>
					<g class="st1">
						<path class="st6" d="M444,434.1h157.7c6.9,0,12.4-5.5,12.4-12.4l0,0H431.5l0,0C431.5,428.5,437.1,434.1,444,434.1z"/>
						<path class="st6" d="M398.6,433.1h126.1c3.6,0,6.2-3.3,5.4-6.8l-19.2-82c-0.6-2.5-2.8-4.3-5.4-4.3H379.4
							c-3.6,0-6.2,3.3-5.4,6.8l19.2,82C393.8,431.3,396,433.1,398.6,433.1z"/>
						<path class="st6" d="M394.2,433.1h126.1c3.6,0,6.2-3.3,5.4-6.8l-19.2-82c-0.6-2.5-2.8-4.3-5.4-4.3H375.1
							c-3.6,0-6.2,3.3-5.4,6.8l19.2,82C389.4,431.3,391.7,433.1,394.2,433.1z"/>
						<ellipse class="st6" cx="446.3" cy="386.6" rx="14.6" ry="14.6"/>
					</g>
					<path class="st8" d="M590.7,176c-22.2-3-43.1,15.6-46.6,41.5l80.5,10.8C628.1,202.4,612.9,179,590.7,176z"/>
					<path class="st8" d="M557.3,234.7c8.4,1.1,16.2-4.7,17.3-13.1l-30.5-4.1C542.9,225.9,548.8,233.6,557.3,234.7z"/>
					<path class="st8" d="M588.1,230.1c14.9,6.4,30.2,4.2,34.2-4.9L568.2,202C564.3,211.1,573.2,223.7,588.1,230.1z"/>
					<path class="st13" d="M637.6,248.9c1.5,6.6-2.7,13.2-9.3,14.6c-6.6,1.5-13.2-2.7-14.7-9.3c-1.5-6.6,2.7-13.2,9.3-14.6
						C629.5,238.2,636.1,242.3,637.6,248.9z"/>
					<path class="st15" d="M585.3,246.3c0,0-2.1,13.4-7.2,18.1c4.9,2.2,5.9,0,5.9,0"/>
					<path class="st8" d="M569.1,239.3c-1.5-0.1-3,0.1-4.4,0.6c-0.8,0.3-1.8,0.1-2.2-0.6l0,0c-0.4-0.7,0-1.8,1.1-2.2
						c1.9-0.7,3.9-1,5.8-0.8c1.2,0.1,1.9,1,1.7,1.9l0,0C570.8,239,570,239.4,569.1,239.3z"/>
					<path class="st8" d="M596.7,239.3c1.5-0.1,3,0.1,4.4,0.6c0.8,0.3,1.8,0.1,2.2-0.6l0,0c0.4-0.7,0-1.8-1.1-2.2
						c-1.9-0.7-3.9-1-5.8-0.8c-1.2,0.1-1.9,1-1.7,1.9l0,0C594.9,239,595.8,239.4,596.7,239.3z"/>
					<ellipse class="st9" cx="623.4" cy="202" rx="12.3" ry="12.2"/>
					<path class="st8" d="M577.1,203.8c-1.5,10.9-11.6,18.6-22.6,17.1c-11-1.5-18.7-11.5-17.2-22.5c1.5-10.9,11.6-18.6,22.6-17.1
						C570.9,182.8,578.6,192.9,577.1,203.8z"/>
					<path class="st8" d="M631.4,250.3c0.7,3.2-1.3,6.3-4.5,7c-3.2,0.7-6.3-1.3-7.1-4.4c-0.7-3.2,1.3-6.3,4.5-7
						C627.5,245.2,630.6,247.2,631.4,250.3z"/>
					<path class="st16" d="M611.2,275.5c5.7-0.6,10.7-4.3,13.1-9.5c2.1-4.7,1.5-9.7,1.1-14.6"/>
					<path class="st8" d="M612.5,278.2l-9.1,0.7c-1.4,0.1-2.6-0.9-2.7-2.3l0,0c-0.1-1.4,0.9-2.6,2.3-2.7l9.1-0.7L612.5,278.2z"/>
					<path class="st17" d="M629.1,250.9c0.4,2-0.8,3.9-2.8,4.4c-2,0.4-3.9-0.8-4.4-2.8c-0.4-2,0.8-3.9,2.8-4.4
						C626.7,247.7,628.6,248.9,629.1,250.9z"/>
					<g class="st4">
						<polygon class="st5" points="436.2,291.6 488.5,268 473,303.3 						"/>
						<polyline class="st5" points="488.5,268 502.9,299.5 450.6,323.2 436.2,291.6 						"/>
						<polyline class="st5" points="476.1,296.2 502.9,299.5 488.5,268 						"/>
						<polyline class="st5" points="465.6,300.9 450.6,323.2 436.2,291.6 						"/>
					</g>
					<g class="st1">
						<path class="st6" d="M776.6,453H189c-2.2,0-3.9-1.8-3.9-3.9l0,0c0-2.2,1.8-3.9,3.9-3.9h587.6c2.2,0,3.9,1.8,3.9,3.9l0,0
							C780.6,451.3,778.8,453,776.6,453z"/>
					</g>
					<path class="st9" d="M354.5,394.3h-0.1c0,3.3-2.7,6-6,6v0.1c3.3,0,6,2.7,6,6h0.1c0-3.3,2.7-6,6-6v-0.1
						C357.1,400.2,354.5,397.5,354.5,394.3z"/>
					<path class="st9" d="M665,167.4h-0.1c0,3.3-2.7,6-6,6v0.1c3.3,0,6,2.7,6,6h0.1c0-3.3,2.7-6,6-6v-0.1
						C667.7,173.4,665,170.7,665,167.4z"/>
					<path class="st9" d="M337.4,383.8c0,1-0.8,1.8-1.9,1.8s-1.9-0.8-1.9-1.8s0.8-1.8,1.9-1.8S337.4,382.8,337.4,383.8z"/>
					<ellipse class="st8" cx="433.9" cy="124.1" rx="1.9" ry="1.8"/>
					<path class="st8" d="M391.5,239.8c0,1-0.8,1.8-1.9,1.8c-1,0-1.9-0.8-1.9-1.8s0.8-1.8,1.9-1.8
						C390.7,237.9,391.5,238.7,391.5,239.8z"/>
					<ellipse class="st8" cx="651.7" cy="162" rx="1.9" ry="1.8"/>
					<path class="st8" d="M699.8,151c0,1-0.8,1.8-1.9,1.8c-1,0-1.9-0.8-1.9-1.8c0-1,0.8-1.8,1.9-1.8
						C699,149.1,699.8,149.9,699.8,151z"/>
					<path class="st8" d="M747,222.2c0,1-0.8,1.8-1.9,1.8c-1,0-1.9-0.8-1.9-1.8c0-1,0.8-1.8,1.9-1.8
						C746.1,220.3,747,221.2,747,222.2z"/>
					<g class="st1">
						<path class="st18" d="M409.9,159.1c-0.2-0.5-0.6-0.8-1.2-0.7l-5.4,0.6c-0.4-1-0.9-1.9-1.5-2.8l3.4-4.2c0.3-0.4,0.3-1,0-1.4
							c-2.1-2.5-4.7-4.6-7.7-6.1c-0.5-0.2-1-0.1-1.4,0.3l-3.4,4.3c-1-0.4-2-0.7-3.1-0.9l-0.6-5.4c-0.1-0.5-0.5-0.9-1-1
							c-3.3-0.3-6.6,0.1-9.8,1.1c-0.5,0.2-0.8,0.6-0.8,1.2l0.6,5.4c-1,0.4-1.9,0.9-2.8,1.5l-4.3-3.4c-0.4-0.3-1-0.3-1.4,0
							c-2.5,2.1-4.6,4.7-6.1,7.7c-0.2,0.5-0.1,1,0.3,1.3l4.3,3.4c-0.4,1-0.7,2-0.9,3l-5.4,0.6c-0.5,0.1-0.9,0.5-1,1
							c-0.1,1.6-0.1,3.3,0.1,4.9c0.2,1.6,0.5,3.2,1,4.8c0.2,0.5,0.6,0.8,1.2,0.7l5.4-0.6c0.4,1,0.9,1.9,1.5,2.8l-3.4,4.2
							c-0.3,0.4-0.3,1,0,1.4c2.1,2.5,4.7,4.6,7.7,6.1c0.5,0.2,1,0.1,1.4-0.3l3.4-4.3c1,0.4,2,0.7,3.1,0.9l0.6,5.4
							c0.1,0.5,0.5,0.9,1,1c1.7,0.1,3.3,0.1,4.9-0.1c1.6-0.2,3.3-0.5,4.8-1c0.5-0.2,0.8-0.6,0.8-1.2l-0.6-5.4c1-0.4,1.9-0.9,2.8-1.5
							l4.3,3.4c0.4,0.3,1,0.3,1.4,0c2.5-2.1,4.6-4.7,6.1-7.7c0.2-0.5,0.1-1-0.3-1.3l-4.3-3.4c0.4-1,0.7-2,0.9-3l5.4-0.6
							c0.5-0.1,0.9-0.5,1-1c0.1-1.6,0.1-3.3-0.1-4.9S410.4,160.7,409.9,159.1z M393.6,167.1c-0.1,3.2-2.5,6.2-5.6,7c0,0,0,0,0,0
							c-2.4,0.7-4.9,0.1-6.9-1.4c-1.9-1.5-3-3.9-2.9-6.4c0.1-3.2,2.5-6.2,5.6-7c0.4-0.1,0.8-0.2,1.2-0.2c2-0.2,4.1,0.3,5.7,1.6
							C392.7,162.2,393.7,164.6,393.6,167.1z"/>
					</g>
					<path class="st8" d="M462.5,184.8c-3.1-14.2-15-25.4-29.5-27.5c-1.3-0.2-2.5-0.3-3.8-0.5c-1.2,0-2.3,0-3.5,0
						c-1.2,0.2-2.5,0.3-3.7,0.5c-15.6,2.3-27.9,14.8-30,30.2c-2.6,18.9,9.6,36.2,28.4,40c1.5,0.3,3.1,0.4,4.6,0.6
						c0.2,0,0.5,0.1,0.7,0.2c1.2,0,2.3,0,3.5,0c1.3-0.2,2.5-0.3,3.8-0.5c15.1-2.3,27.4-14.3,29.8-29.3c0.2-1,0.3-2.1,0.5-3.1
						c0-1.9,0-3.8,0-5.7C463.1,188,462.9,186.4,462.5,184.8z M450.1,205.9c-0.3,0.6-3.2,5.5-4.5,6.7c-1.2,1.2-2.9,1.6-4.2,1.6
						c-0.1,0-0.3,0-0.4,0c-1.8-0.1-13.4-4-21.3-12.7c-8-8.7-10.8-20.6-10.7-22.3c0-1.3,0.6-3.1,2-4.4c1.3-1.1,6.5-3.6,7.1-3.8
						c0.6-0.2,1.8-0.7,2.7,0.6c0.4,0.5,6.3,9.9,6.6,11c0.2,0.6,0.1,1.6-1,2.6c-0.5,0.4-5.3,3.5-5.5,3.6c-0.2,0.1-0.2,0.2-0.3,0.2
						c0,0,0,0.1,0.1,0.2c0.2,0.6,2.4,4.9,4.6,7.3c2.2,2.4,6.2,5,6.8,5.2c0.2,0.1,0.3,0.1,0.3,0.1c0,0,0.1-0.2,0.2-0.3
						c0.1-0.2,3.6-4.7,4.1-5.2c1.1-1,2.1-1,2.7-0.8c1,0.4,10,7.2,10.4,7.6C451,204.3,450.4,205.4,450.1,205.9z"/>
					<path class="st8" d="M416.9,125.8h-0.1c0,3.8-3.1,7-7,7v0.1c3.9,0,7,3.1,7,7h0.1c0-3.8,3.1-7,7-7v-0.1
						C420.1,132.8,416.9,129.7,416.9,125.8z"/>
					<path class="st9" d="M320.4,212.7h-0.1c0,3.8-3.1,7-7,7v0.1c3.9,0,7,3.1,7,7h0.1c0-3.8,3.1-7,7-7v-0.1
						C323.5,219.7,320.4,216.6,320.4,212.7z"/>
					<path class="st8" d="M508.3,127.6c-0.1-0.2-0.3-0.4-0.6-0.4h-6.1l-1.9-5.7c-0.1-0.2-0.3-0.4-0.6-0.4c-0.3,0-0.5,0.2-0.6,0.4
						l-1.9,5.7h-6.1c-0.3,0-0.5,0.2-0.6,0.4c-0.1,0.2,0,0.5,0.2,0.7l4.9,3.5l-1.9,5.7c-0.1,0.2,0,0.5,0.2,0.7c0.2,0.2,0.5,0.2,0.7,0
						l4.9-3.5l4.9,3.5c0.1,0.1,0.2,0.1,0.4,0.1c0.1,0,0.3,0,0.4-0.1c0.2-0.2,0.3-0.4,0.2-0.7l-1.9-5.7l4.9-3.5
						C508.3,128.1,508.4,127.8,508.3,127.6z"/>
					<path class="st8" d="M535.7,127.6c-0.1-0.2-0.3-0.4-0.6-0.4H529l-1.9-5.7c-0.1-0.2-0.3-0.4-0.6-0.4c-0.3,0-0.5,0.2-0.6,0.4
						l-1.9,5.7h-6.1c-0.3,0-0.5,0.2-0.6,0.4c-0.1,0.2,0,0.5,0.2,0.7l4.9,3.5l-1.9,5.7c-0.1,0.2,0,0.5,0.2,0.7c0.2,0.2,0.5,0.2,0.7,0
						l4.9-3.5l4.9,3.5c0.1,0.1,0.2,0.1,0.4,0.1c0.1,0,0.3,0,0.4-0.1c0.2-0.2,0.3-0.4,0.2-0.7l-1.9-5.7l4.9-3.5
						C535.7,128.1,535.7,127.8,535.7,127.6z"/>
					<path class="st8" d="M563,127.6c-0.1-0.2-0.3-0.4-0.6-0.4h-6.1l-1.9-5.7c-0.1-0.2-0.3-0.4-0.6-0.4c-0.3,0-0.5,0.2-0.6,0.4
						l-1.9,5.7h-6.1c-0.3,0-0.5,0.2-0.6,0.4c-0.1,0.2,0,0.5,0.2,0.7l4.9,3.5l-1.9,5.7c-0.1,0.2,0,0.5,0.2,0.7c0.2,0.2,0.5,0.2,0.7,0
						l4.9-3.5l4.9,3.5c0.1,0.1,0.2,0.1,0.4,0.1c0.1,0,0.3,0,0.4-0.1c0.2-0.2,0.3-0.4,0.2-0.7l-1.9-5.7l4.9-3.5
						C563,128.1,563.1,127.8,563,127.6z"/>
					<path class="st19" d="M590.3,127.6c-0.1-0.2-0.3-0.4-0.6-0.4h-6.1l-1.9-5.7c-0.1-0.2-0.3-0.4-0.6-0.4c-0.3,0-0.5,0.2-0.6,0.4
						l-1.9,5.7h-6.1c-0.3,0-0.5,0.2-0.6,0.4c-0.1,0.2,0,0.5,0.2,0.7l4.9,3.5l-1.9,5.7c-0.1,0.2,0,0.5,0.2,0.7c0.2,0.2,0.5,0.2,0.7,0
						l4.9-3.5l4.9,3.5c0.1,0.1,0.2,0.1,0.4,0.1c0.1,0,0.3,0,0.4-0.1c0.2-0.2,0.3-0.4,0.2-0.7l-1.9-5.7l4.9-3.5
						C590.3,128.1,590.4,127.8,590.3,127.6z"/>
				</g>
				<g>
					<defs>
						<polyline id="SVGID_7_" points="-59,0 766.3,0 766.3,502.9 -59,502.9 						"/>
					</defs>
					<clipPath id="SVGID_8_">
						<use xlink:href="#SVGID_7_"  style="overflow:visible;"/>
					</clipPath>
				</g>
			</g>
		</g>
	</g>
	
		<image style="overflow:visible;" width="1500" height="1500" xlink:href="../../../Downloads/IMS (2) (1).png"  transform="matrix(9.933333e-02 0 0 0.1031 1516.6666 273.6067)">
	</image>
</g>
<g id="DESIGNED_BY_FREEPIK">
</g>
</svg>
