<?xml version="1.0" encoding="UTF-8"?><svg xmlns="http://www.w3.org/2000/svg" xmlns:xlink="http://www.w3.org/1999/xlink" width="375pt" zoomAndPan="magnify" viewBox="0 0 375 374.999991" height="374.999991pt" preserveAspectRatio="xMidYMid meet" version="1.2"><defs><clipPath xml:id="clip1" id="clip1"><path d="M 36 101.453125 L 342 101.453125 L 342 303.953125 L 36 303.953125 Z M 36 101.453125 "/></clipPath></defs><g xml:id="surface1" id="surface1"><path style=" stroke:none;fill-rule:nonzero;fill:rgb(94.119263%,25.878906%,31.369019%);fill-opacity:1;" d="M 210.164062 212.859375 C 207.484375 212.859375 204.941406 211.800781 203.046875 209.902344 L 176.984375 183.808594 C 173.058594 179.878906 173.058594 173.484375 176.984375 169.554688 C 180.90625 165.628906 187.292969 165.628906 191.21875 169.554688 L 217.28125 195.652344 C 221.203125 199.582031 221.203125 205.976562 217.28125 209.902344 C 215.386719 211.773438 212.84375 212.859375 210.164062 212.859375 Z M 236.199219 238.953125 C 233.519531 238.953125 230.949219 237.894531 229.054688 236 L 222.367188 229.277344 C 218.445312 225.347656 218.445312 218.953125 222.367188 215.027344 C 226.320312 211.097656 232.679688 211.097656 236.605469 215.050781 L 243.316406 221.746094 C 247.238281 225.703125 247.238281 232.070312 243.289062 236.027344 C 241.421875 237.894531 238.851562 238.953125 236.199219 238.953125 "/><g clip-rule="nonzero" clip-path="url(#clip1)"><path style=" stroke:none;fill-rule:nonzero;fill:rgb(29.40979%,39.99939%,45.098877%);fill-opacity:1;" d="M 304.828125 304.230469 L 136.578125 304.230469 C 126.617188 304.203125 117.09375 300.164062 110.109375 293.039062 L 47.429688 228.546875 C 33.386719 214.238281 33.386719 191.316406 47.429688 177.007812 L 110.109375 112.515625 C 117.09375 105.390625 126.617188 101.351562 136.578125 101.324219 L 248.402344 101.324219 C 253.976562 101.324219 258.46875 105.851562 258.46875 111.40625 C 258.46875 116.988281 253.976562 121.488281 248.402344 121.488281 L 136.578125 121.488281 C 132.03125 121.488281 127.699219 123.328125 124.535156 126.582031 L 61.882812 191.070312 C 55.496094 197.574219 55.496094 207.980469 61.882812 214.484375 L 124.5625 279 C 127.726562 282.226562 132.058594 284.070312 136.578125 284.070312 L 304.828125 284.070312 C 314.113281 284.070312 321.609375 276.5625 321.609375 267.269531 L 321.609375 138.285156 C 321.609375 128.992188 314.113281 121.488281 304.828125 121.488281 L 280.203125 121.488281 C 274.65625 121.488281 270.136719 116.988281 270.136719 111.40625 C 270.136719 105.851562 274.65625 101.324219 280.203125 101.324219 L 304.828125 101.324219 C 325.207031 101.351562 341.71875 117.882812 341.746094 138.285156 L 341.746094 267.269531 C 341.71875 287.671875 325.207031 304.203125 304.828125 304.230469 "/></g><path style=" stroke:none;fill-rule:nonzero;fill:rgb(94.119263%,25.878906%,31.369019%);fill-opacity:1;" d="M 184.046875 238.953125 C 178.5 238.953125 173.980469 234.453125 173.980469 228.898438 C 173.980469 226.214844 175.0625 223.640625 176.957031 221.746094 L 229.054688 169.554688 C 233.085938 165.683594 239.445312 165.789062 243.289062 169.800781 C 247.078125 173.703125 247.078125 179.90625 243.289062 183.808594 L 191.191406 236 C 189.296875 237.894531 186.726562 238.953125 184.046875 238.953125 "/></g></svg>