<?xml version="1.0" encoding="UTF-8"?><svg xmlns="http://www.w3.org/2000/svg" xmlns:xlink="http://www.w3.org/1999/xlink" width="375" zoomAndPan="magnify" viewBox="0 0 375 374.999991" height="374.999991" preserveAspectRatio="xMidYMid meet" version="1.0"><defs><clipPath id="clip-0"><path d="M 27.777344 33.796875 L 331.527344 33.796875 L 331.527344 337.546875 L 27.777344 337.546875 Z M 27.777344 33.796875 " clip-rule="nonzero"/></clipPath></defs><g clip-path="url(#clip-0)"><path fill="rgb(1.179504%, 59.609985%, 61.959839%)" d="M 243.285156 223.195312 L 217.175781 249.308594 L 179.648438 211.777344 L 142.117188 249.308594 L 116.003906 223.195312 L 153.535156 185.667969 L 116.003906 148.140625 L 142.117188 122.023438 L 179.648438 159.554688 L 217.175781 122.023438 L 243.285156 148.140625 L 205.761719 185.667969 Z M 179.648438 33.796875 C 95.773438 33.796875 27.777344 101.789062 27.777344 185.667969 C 27.777344 269.542969 95.773438 337.535156 179.648438 337.535156 C 263.523438 337.535156 331.519531 269.542969 331.519531 185.667969 C 331.519531 101.789062 263.523438 33.796875 179.648438 33.796875 " fill-opacity="1" fill-rule="nonzero"/></g></svg>