<?xml version="1.0" encoding="UTF-8"?><svg xmlns="http://www.w3.org/2000/svg" xmlns:xlink="http://www.w3.org/1999/xlink" width="375pt" zoomAndPan="magnify" viewBox="0 0 375 374.999991" height="374.999991pt" preserveAspectRatio="xMidYMid meet" version="1.2"><defs><clipPath xml:id="clip1" id="clip1"><path d="M 72 96 L 303 96 L 303 326.125 L 72 326.125 Z M 72 96 "/></clipPath><clipPath xml:id="clip2" id="clip2"><path d="M 48.625 96 L 326.125 96 L 326.125 110 L 48.625 110 Z M 48.625 96 "/></clipPath><clipPath xml:id="clip3" id="clip3"><path d="M 144 48.625 L 231 48.625 L 231 110 L 144 110 Z M 144 48.625 "/></clipPath></defs><g xml:id="surface1" id="surface1"><rect x="0" width="375" y="0" height="374.999991" style="fill:rgb(100%,100%,100%);fill-opacity:1;stroke:none;"/><rect x="0" width="375" y="0" height="374.999991" style="fill:rgb(100%,100%,100%);fill-opacity:1;stroke:none;"/><rect x="0" width="375" y="0" height="374.999991" style="fill:rgb(100%,31.759644%,31.759644%);fill-opacity:1;stroke:none;"/><g clip-rule="nonzero" clip-path="url(#clip1)"><path style="fill:none;stroke-width:20;stroke-linecap:round;stroke-linejoin:round;stroke:rgb(1.568604%,2.349854%,2.349854%);stroke-opacity:1;stroke-miterlimit:4;" d="M 46.681582 339.981068 L 376.67995 339.981068 L 340.000894 10.018427 L 83.318957 10.018427 Z M 46.681582 339.981068 " transform="matrix(0.656028,0,0,-0.656028,48.625559,326.322372)"/></g><g clip-rule="nonzero" clip-path="url(#clip2)"><path style="fill:none;stroke-width:20;stroke-linecap:round;stroke-linejoin:round;stroke:rgb(1.568604%,2.349854%,2.349854%);stroke-opacity:1;stroke-miterlimit:4;" d="M 10.002527 339.981068 L 413.323279 339.981068 " transform="matrix(0.656028,0,0,-0.656028,48.625559,326.322372)"/></g><g clip-rule="nonzero" clip-path="url(#clip3)"><path style="fill:none;stroke-width:20;stroke-linecap:round;stroke-linejoin:round;stroke:rgb(1.568604%,2.349854%,2.349854%);stroke-opacity:1;stroke-miterlimit:4;" d="M 156.677069 339.981068 L 156.677069 358.338459 C 156.677069 388.687996 181.286571 413.339179 211.677789 413.339179 C 242.03328 413.339179 266.678509 388.687996 266.678509 358.338459 L 266.678509 339.981068 " transform="matrix(0.656028,0,0,-0.656028,48.625559,326.322372)"/></g><path style="fill:none;stroke-width:20;stroke-linecap:round;stroke-linejoin:round;stroke:rgb(1.568604%,2.349854%,2.349854%);stroke-opacity:1;stroke-miterlimit:4;" d="M 119.998013 248.337018 L 138.319678 101.656522 " transform="matrix(0.656028,0,0,-0.656028,48.625559,326.322372)"/><path style="fill:none;stroke-width:20;stroke-linecap:round;stroke-linejoin:round;stroke:rgb(1.568604%,2.349854%,2.349854%);stroke-opacity:1;stroke-miterlimit:4;" d="M 303.321838 248.337018 L 285.000174 101.656522 " transform="matrix(0.656028,0,0,-0.656028,48.625559,326.322372)"/><path style="fill:none;stroke-width:20;stroke-linecap:round;stroke-linejoin:round;stroke:rgb(1.568604%,2.349854%,2.349854%);stroke-opacity:1;stroke-miterlimit:4;" d="M 211.677789 266.658683 L 211.677789 83.340812 " transform="matrix(0.656028,0,0,-0.656028,48.625559,326.322372)"/></g></svg>