<?xml version="1.0" encoding="UTF-8"?><svg xmlns="http://www.w3.org/2000/svg" xmlns:xlink="http://www.w3.org/1999/xlink" width="375pt" zoomAndPan="magnify" viewBox="0 0 375 374.999991" height="374.999991pt" preserveAspectRatio="xMidYMid meet" version="1.2"><defs><clipPath xml:id="clip1" id="clip1"><path d="M 19 92 L 214 92 L 214 298 L 19 298 Z M 19 92 "/></clipPath><clipPath xml:id="clip2" id="clip2"><path d="M 177.898438 -18.480469 L 368.011719 163.609375 L 159.460938 381.347656 L -30.652344 199.257812 Z M 177.898438 -18.480469 "/></clipPath><clipPath xml:id="clip3" id="clip3"><path d="M 177.898438 -18.480469 L 368.011719 163.609375 L 159.460938 381.347656 L -30.652344 199.257812 Z M 177.898438 -18.480469 "/></clipPath><clipPath xml:id="clip4" id="clip4"><path d="M 21 106 L 228 106 L 228 301 L 21 301 Z M 21 106 "/></clipPath><clipPath xml:id="clip5" id="clip5"><path d="M 177.898438 -18.480469 L 368.011719 163.609375 L 159.460938 381.347656 L -30.652344 199.257812 Z M 177.898438 -18.480469 "/></clipPath><clipPath xml:id="clip6" id="clip6"><path d="M 177.898438 -18.480469 L 368.011719 163.609375 L 159.460938 381.347656 L -30.652344 199.257812 Z M 177.898438 -18.480469 "/></clipPath><clipPath xml:id="clip7" id="clip7"><path d="M 196 160 L 279 160 L 279 224 L 196 224 Z M 196 160 "/></clipPath><clipPath xml:id="clip8" id="clip8"><path d="M 177.898438 -18.480469 L 368.011719 163.609375 L 159.460938 381.347656 L -30.652344 199.257812 Z M 177.898438 -18.480469 "/></clipPath><clipPath xml:id="clip9" id="clip9"><path d="M 177.898438 -18.480469 L 368.011719 163.609375 L 159.460938 381.347656 L -30.652344 199.257812 Z M 177.898438 -18.480469 "/></clipPath><clipPath xml:id="clip10" id="clip10"><path d="M 254 137 L 306 137 L 306 177 L 254 177 Z M 254 137 "/></clipPath><clipPath xml:id="clip11" id="clip11"><path d="M 177.898438 -18.480469 L 368.011719 163.609375 L 159.460938 381.347656 L -30.652344 199.257812 Z M 177.898438 -18.480469 "/></clipPath><clipPath xml:id="clip12" id="clip12"><path d="M 177.898438 -18.480469 L 368.011719 163.609375 L 159.460938 381.347656 L -30.652344 199.257812 Z M 177.898438 -18.480469 "/></clipPath><clipPath xml:id="clip13" id="clip13"><path d="M 283 168 L 343 168 L 343 214 L 283 214 Z M 283 168 "/></clipPath><clipPath xml:id="clip14" id="clip14"><path d="M 177.898438 -18.480469 L 368.011719 163.609375 L 159.460938 381.347656 L -30.652344 199.257812 Z M 177.898438 -18.480469 "/></clipPath><clipPath xml:id="clip15" id="clip15"><path d="M 177.898438 -18.480469 L 368.011719 163.609375 L 159.460938 381.347656 L -30.652344 199.257812 Z M 177.898438 -18.480469 "/></clipPath><clipPath xml:id="clip16" id="clip16"><path d="M 261 211 L 301 211 L 301 237 L 261 237 Z M 261 211 "/></clipPath><clipPath xml:id="clip17" id="clip17"><path d="M 177.898438 -18.480469 L 368.011719 163.609375 L 159.460938 381.347656 L -30.652344 199.257812 Z M 177.898438 -18.480469 "/></clipPath><clipPath xml:id="clip18" id="clip18"><path d="M 177.898438 -18.480469 L 368.011719 163.609375 L 159.460938 381.347656 L -30.652344 199.257812 Z M 177.898438 -18.480469 "/></clipPath><clipPath xml:id="clip19" id="clip19"><path d="M 328 151 L 368 151 L 368 178 L 328 178 Z M 328 151 "/></clipPath><clipPath xml:id="clip20" id="clip20"><path d="M 177.898438 -18.480469 L 368.011719 163.609375 L 159.460938 381.347656 L -30.652344 199.257812 Z M 177.898438 -18.480469 "/></clipPath><clipPath xml:id="clip21" id="clip21"><path d="M 177.898438 -18.480469 L 368.011719 163.609375 L 159.460938 381.347656 L -30.652344 199.257812 Z M 177.898438 -18.480469 "/></clipPath><clipPath xml:id="clip22" id="clip22"><path d="M 72 142 L 178 142 L 178 248 L 72 248 Z M 72 142 "/></clipPath><clipPath xml:id="clip23" id="clip23"><path d="M 177.898438 -18.480469 L 368.011719 163.609375 L 159.460938 381.347656 L -30.652344 199.257812 Z M 177.898438 -18.480469 "/></clipPath><clipPath xml:id="clip24" id="clip24"><path d="M 177.898438 -18.480469 L 368.011719 163.609375 L 159.460938 381.347656 L -30.652344 199.257812 Z M 177.898438 -18.480469 "/></clipPath></defs><g xml:id="surface1" id="surface1"><g clip-rule="nonzero" clip-path="url(#clip1)"><g clip-rule="nonzero" clip-path="url(#clip2)"><g clip-rule="nonzero" clip-path="url(#clip3)"><path style=" stroke:none;fill-rule:nonzero;fill:rgb(14.898682%,80.389404%,81.959534%);fill-opacity:1;" d="M 19.824219 146.554688 L 71.285156 92.828125 L 200.953125 217.027344 C 216.621094 232.03125 217.136719 256.914062 202.105469 272.605469 L 177.859375 297.921875 Z M 19.824219 146.554688 "/></g></g></g><g clip-rule="nonzero" clip-path="url(#clip4)"><g clip-rule="nonzero" clip-path="url(#clip5)"><g clip-rule="nonzero" clip-path="url(#clip6)"><path style=" stroke:none;fill-rule:nonzero;fill:rgb(25.878906%,90.979004%,85.099792%);fill-opacity:1;" d="M 75.59375 300.214844 L 21.949219 248.832031 L 146.347656 118.953125 C 161.378906 103.261719 186.257812 102.703125 201.925781 117.707031 L 227.199219 141.914062 L 75.585938 300.207031 Z M 75.59375 300.214844 "/></g></g></g><g clip-rule="nonzero" clip-path="url(#clip7)"><g clip-rule="nonzero" clip-path="url(#clip8)"><g clip-rule="nonzero" clip-path="url(#clip9)"><path style=" stroke:none;fill-rule:nonzero;fill:rgb(21.179199%,49.01886%,63.919067%);fill-opacity:1;" d="M 221.414062 217.394531 L 196.246094 193.289062 L 220.390625 168.078125 C 229.40625 158.667969 244.339844 158.335938 253.734375 167.332031 L 278.90625 191.441406 L 254.757812 216.648438 C 245.746094 226.0625 230.808594 226.394531 221.414062 217.394531 Z M 221.414062 217.394531 "/></g></g></g><g clip-rule="nonzero" clip-path="url(#clip10)"><g clip-rule="nonzero" clip-path="url(#clip11)"><g clip-rule="nonzero" clip-path="url(#clip12)"><path style=" stroke:none;fill-rule:nonzero;fill:rgb(14.898682%,80.389404%,81.959534%);fill-opacity:1;" d="M 270.117188 172.027344 L 254.558594 157.125 L 269.496094 141.527344 C 275.070312 135.707031 284.304688 135.507812 290.109375 141.066406 L 305.667969 155.972656 L 290.738281 171.558594 C 285.164062 177.382812 275.921875 177.589844 270.117188 172.027344 Z M 270.117188 172.027344 "/></g></g></g><g clip-rule="nonzero" clip-path="url(#clip13)"><g clip-rule="nonzero" clip-path="url(#clip14)"><g clip-rule="nonzero" clip-path="url(#clip15)"><path style=" stroke:none;fill-rule:nonzero;fill:rgb(21.179199%,49.01886%,63.919067%);fill-opacity:1;" d="M 301.851562 208.460938 L 283.953125 191.320312 L 301.117188 173.402344 C 307.527344 166.707031 318.144531 166.46875 324.824219 172.871094 L 342.722656 190.011719 L 325.554688 207.9375 C 319.152344 214.625 308.535156 214.859375 301.851562 208.460938 Z M 301.851562 208.460938 "/></g></g></g><g clip-rule="nonzero" clip-path="url(#clip16)"><g clip-rule="nonzero" clip-path="url(#clip17)"><g clip-rule="nonzero" clip-path="url(#clip18)"><path style=" stroke:none;fill-rule:nonzero;fill:rgb(25.878906%,90.979004%,85.099792%);fill-opacity:1;" d="M 269.472656 232.261719 L 261.613281 224.734375 L 269.15625 216.859375 C 275.550781 210.183594 286.121094 209.957031 292.777344 216.332031 L 300.640625 223.859375 L 293.097656 231.734375 C 286.710938 238.398438 276.128906 238.636719 269.472656 232.261719 Z M 269.472656 232.261719 "/></g></g></g><g clip-rule="nonzero" clip-path="url(#clip19)"><g clip-rule="nonzero" clip-path="url(#clip20)"><g clip-rule="nonzero" clip-path="url(#clip21)"><path style=" stroke:none;fill-rule:nonzero;fill:rgb(25.878906%,90.979004%,85.099792%);fill-opacity:1;" d="M 336.429688 172.429688 L 328.570312 164.902344 L 336.109375 157.03125 C 342.503906 150.355469 353.085938 150.117188 359.75 156.5 L 367.609375 164.027344 L 360.070312 171.902344 C 353.675781 178.578125 343.09375 178.8125 336.429688 172.429688 Z M 336.429688 172.429688 "/></g></g></g><g clip-rule="nonzero" clip-path="url(#clip22)"><g clip-rule="nonzero" clip-path="url(#clip23)"><g clip-rule="nonzero" clip-path="url(#clip24)"><path style=" stroke:none;fill-rule:nonzero;fill:rgb(14.898682%,80.389404%,81.959534%);fill-opacity:1;" d="M 123.484375 142.824219 L 177.121094 194.199219 L 125.664062 247.925781 L 72.023438 196.550781 Z M 123.484375 142.824219 "/><path style=" stroke:none;fill-rule:nonzero;fill:rgb(21.179199%,49.01886%,63.919067%);fill-opacity:1;" d="M 123.484375 142.824219 L 177.121094 194.199219 L 125.664062 247.925781 L 72.023438 196.550781 Z M 123.484375 142.824219 "/></g></g></g></g></svg>