<?xml version="1.0" encoding="UTF-8"?><svg xmlns="http://www.w3.org/2000/svg" xmlns:xlink="http://www.w3.org/1999/xlink" width="375pt" zoomAndPan="magnify" viewBox="0 0 375 374.999991" height="374.999991pt" preserveAspectRatio="xMidYMid meet" version="1.2"><defs><clipPath xml:id="clip1" id="clip1"><path d="M 98 53.097656 L 241 53.097656 L 241 196 L 98 196 Z M 98 53.097656 "/></clipPath><clipPath xml:id="clip2" id="clip2"><path d="M 62.710938 201 L 188 201 L 188 314 L 62.710938 314 Z M 62.710938 201 "/></clipPath><clipPath xml:id="clip3" id="clip3"><path d="M 187 195 L 329.710938 195 L 329.710938 337.242188 L 187 337.242188 Z M 187 195 "/></clipPath></defs><g xml:id="surface1" id="surface1"><rect x="0" width="375" y="0" height="374.999991" style="fill:rgb(100%,100%,100%);fill-opacity:1;stroke:none;"/><rect x="0" width="375" y="0" height="374.999991" style="fill:rgb(100%,100%,100%);fill-opacity:1;stroke:none;"/><rect x="0" width="375" y="0" height="374.999991" style="fill:rgb(42.349243%,92.158508%,79.998779%);fill-opacity:1;stroke:none;"/><g clip-rule="nonzero" clip-path="url(#clip1)"><path style=" stroke:none;fill-rule:nonzero;fill:rgb(19.999695%,19.999695%,19.999695%);fill-opacity:1;" d="M 169.511719 195.117188 C 130.351562 195.117188 98.3125 163.140625 98.3125 124.054688 C 98.3125 84.972656 130.351562 52.992188 169.511719 52.992188 C 208.671875 52.992188 240.710938 84.972656 240.710938 124.054688 C 240.710938 163.140625 208.671875 195.117188 169.511719 195.117188 Z M 169.511719 64.835938 C 136.878906 64.835938 110.179688 91.484375 110.179688 124.054688 C 110.179688 156.625 136.878906 183.273438 169.511719 183.273438 C 202.144531 183.273438 228.84375 156.625 228.84375 124.054688 C 228.84375 91.484375 202.144531 64.835938 169.511719 64.835938 Z M 169.511719 64.835938 "/></g><g clip-rule="nonzero" clip-path="url(#clip2)"><path style=" stroke:none;fill-rule:nonzero;fill:rgb(19.999695%,19.999695%,19.999695%);fill-opacity:1;" d="M 169.511719 313.554688 L 62.710938 313.554688 L 62.710938 307.632812 C 62.710938 249.007812 110.769531 201.039062 169.511719 201.039062 C 173.664062 201.039062 178.410156 201.039062 182.5625 201.632812 C 185.53125 202.222656 187.90625 205.183594 187.90625 208.144531 C 187.90625 211.105469 184.34375 214.066406 181.378906 213.476562 C 177.222656 212.882812 173.664062 212.882812 169.511719 212.882812 C 119.078125 212.882812 77.542969 251.96875 74.578125 301.710938 L 169.511719 301.710938 C 173.070312 301.710938 175.445312 304.078125 175.445312 307.632812 C 175.445312 311.1875 173.070312 313.554688 169.511719 313.554688 Z M 169.511719 313.554688 "/></g><g clip-rule="nonzero" clip-path="url(#clip3)"><path style=" stroke:none;fill-rule:nonzero;fill:rgb(19.999695%,19.999695%,19.999695%);fill-opacity:1;" d="M 258.511719 337.242188 C 219.351562 337.242188 187.3125 305.265625 187.3125 266.179688 C 187.3125 227.09375 219.351562 195.117188 258.511719 195.117188 C 297.671875 195.117188 329.710938 227.09375 329.710938 266.179688 C 329.710938 305.265625 297.671875 337.242188 258.511719 337.242188 Z M 258.511719 206.960938 C 225.878906 206.960938 199.179688 233.609375 199.179688 266.179688 C 199.179688 298.75 225.878906 325.398438 258.511719 325.398438 C 291.144531 325.398438 317.84375 298.75 317.84375 266.179688 C 317.84375 233.609375 291.144531 206.960938 258.511719 206.960938 Z M 258.511719 206.960938 "/></g><path style=" stroke:none;fill-rule:nonzero;fill:rgb(19.999695%,19.999695%,19.999695%);fill-opacity:1;" d="M 224.691406 305.855469 C 222.910156 305.855469 221.722656 305.265625 220.539062 304.078125 C 219.351562 302.894531 218.757812 301.117188 218.757812 299.34375 L 222.910156 269.734375 C 222.910156 268.546875 223.503906 267.363281 224.691406 266.179688 L 262.664062 228.28125 C 272.15625 218.804688 286.992188 218.804688 296.484375 228.28125 C 305.976562 237.753906 305.976562 252.558594 296.484375 262.035156 L 258.511719 299.933594 C 257.324219 301.117188 256.136719 301.710938 254.949219 301.710938 L 225.878906 305.855469 C 225.285156 305.855469 225.285156 305.855469 224.691406 305.855469 Z M 234.777344 273.285156 L 231.8125 292.828125 L 251.390625 289.867188 L 287.585938 253.742188 C 292.332031 249.007812 292.332031 241.898438 287.585938 237.164062 C 282.835938 232.425781 275.71875 232.425781 270.972656 237.164062 Z M 234.777344 273.285156 "/></g></svg>